# Sci Fi Wall 3.glb — converted by scripts/convert_glb_to_obj.py
mtllib Sci_Fi_Wall_3.mtl

v -0.333333 0.500000 -0.029167
v -0.333333 0.500000 -0.045833
v -0.333333 -0.500000 -0.045833
v -0.333333 -0.500000 -0.029167
v -0.333333 -0.016667 -0.029167
v -0.333333 -0.016667 -0.037500
v -0.333333 0.016667 -0.037500
v -0.333333 0.016667 -0.029167
v -0.333333 -0.500000 -0.045833
v -0.333333 0.500000 -0.045833
v 0.333333 0.500000 -0.045833
v 0.333333 -0.500000 -0.045833
v 0.333333 -0.016667 -0.029167
v 0.333333 -0.500000 -0.029167
v 0.333333 -0.500000 -0.045833
v 0.333333 0.500000 -0.045833
v 0.333333 0.500000 -0.029167
v 0.333333 0.016667 -0.029167
v 0.333333 0.016667 -0.037500
v 0.333333 -0.016667 -0.037500
v 0.153980 0.063781 -0.029167
v 0.153980 0.016667 -0.029167
v 0.333333 0.016667 -0.029167
v 0.333333 0.500000 -0.029167
v -0.333333 0.500000 -0.029167
v -0.333333 0.016667 -0.029167
v -0.153980 0.016667 -0.029167
v -0.153980 0.063781 -0.029167
v -0.063781 0.153980 -0.029167
v 0.063781 0.153980 -0.029167
v -0.153980 -0.063781 -0.029167
v -0.153980 -0.016667 -0.029167
v -0.333333 -0.016667 -0.029167
v -0.333333 -0.500000 -0.029167
v 0.333333 -0.500000 -0.029167
v 0.333333 -0.016667 -0.029167
v 0.153980 -0.016667 -0.029167
v 0.153980 -0.063781 -0.029167
v 0.063781 -0.153980 -0.029167
v -0.063781 -0.153980 -0.029167
v -0.333333 -0.500000 -0.045833
v 0.333333 -0.500000 -0.045833
v 0.333333 -0.500000 -0.029167
v -0.333333 -0.500000 -0.029167
v 0.333333 0.500000 -0.045833
v -0.333333 0.500000 -0.045833
v -0.333333 0.500000 -0.029167
v 0.333333 0.500000 -0.029167
v -0.333333 -0.016667 -0.037500
v -0.153980 -0.016667 -0.037500
v -0.153980 0.016667 -0.037500
v -0.333333 0.016667 -0.037500
v 0.333333 0.016667 -0.037500
v 0.153980 0.016667 -0.037500
v 0.153980 -0.016667 -0.037500
v 0.333333 -0.016667 -0.037500
v 0.134465 0.016667 -0.037500
v 0.120658 -0.016667 -0.037500
v -0.006904 0.016667 -0.037500
v -0.120658 0.016667 -0.037500
v -0.134465 -0.016667 -0.037500
v 0.006904 -0.016667 -0.037500
v -0.333333 -0.016667 -0.029167
v -0.153980 -0.016667 -0.029167
v -0.153980 -0.016667 -0.037500
v -0.333333 -0.016667 -0.037500
v 0.333333 -0.016667 -0.029167
v 0.333333 -0.016667 -0.037500
v 0.153980 -0.016667 -0.037500
v 0.153980 -0.016667 -0.029167
v -0.333333 0.016667 -0.029167
v -0.333333 0.016667 -0.037500
v -0.153980 0.016667 -0.037500
v -0.153980 0.016667 -0.029167
v 0.333333 0.016667 -0.029167
v 0.153980 0.016667 -0.029167
v 0.153980 0.016667 -0.037500
v 0.333333 0.016667 -0.037500
v 0.063781 0.153980 -0.037500
v 0.153980 0.063781 -0.037500
v 0.153980 0.063781 -0.029167
v 0.063781 0.153980 -0.029167
v 0.153980 0.016667 -0.029167
v 0.153980 0.063781 -0.029167
v 0.153980 0.063781 -0.037500
v 0.153980 0.016667 -0.037500
v 0.153980 -0.063781 -0.037500
v 0.153980 -0.063781 -0.029167
v 0.153980 -0.016667 -0.029167
v 0.153980 -0.016667 -0.037500
v 0.153980 -0.063781 -0.029167
v 0.153980 -0.063781 -0.037500
v 0.063781 -0.153980 -0.037500
v 0.063781 -0.153980 -0.029167
v -0.063781 -0.153980 -0.029167
v 0.063781 -0.153980 -0.029167
v 0.063781 -0.153980 -0.037500
v -0.063781 -0.153980 -0.037500
v -0.153980 -0.063781 -0.029167
v -0.063781 -0.153980 -0.029167
v -0.063781 -0.153980 -0.037500
v -0.153980 -0.063781 -0.037500
v -0.153980 -0.016667 -0.029167
v -0.153980 -0.063781 -0.029167
v -0.153980 -0.063781 -0.037500
v -0.153980 -0.016667 -0.037500
v -0.153980 0.016667 -0.037500
v -0.153980 0.063781 -0.037500
v -0.153980 0.063781 -0.029167
v -0.153980 0.016667 -0.029167
v -0.153980 0.063781 -0.037500
v -0.063781 0.153980 -0.037500
v -0.063781 0.153980 -0.029167
v -0.153980 0.063781 -0.029167
v -0.063781 0.153980 -0.037500
v 0.063781 0.153980 -0.037500
v 0.063781 0.153980 -0.029167
v -0.063781 0.153980 -0.029167
v 0.153980 0.016667 -0.037500
v 0.153980 0.063781 -0.037500
v 0.063781 0.153980 -0.037500
v -0.063781 0.153980 -0.037500
v -0.153980 0.063781 -0.037500
v -0.153980 0.016667 -0.037500
v -0.120658 0.016667 -0.037500
v -0.006904 0.016667 -0.037500
v 0.134465 0.016667 -0.037500
v -0.153980 -0.016667 -0.037500
v -0.153980 -0.063781 -0.037500
v -0.063781 -0.153980 -0.037500
v 0.063781 -0.153980 -0.037500
v 0.153980 -0.063781 -0.037500
v 0.153980 -0.016667 -0.037500
v 0.120658 -0.016667 -0.037500
v 0.006904 -0.016667 -0.037500
v -0.134465 -0.016667 -0.037500
v 0.333333 0.500000 0.045833
v -0.333333 0.500000 0.045833
v -0.333333 0.467744 0.045833
v 0.333333 0.467744 0.045833
v -0.333333 0.500000 -0.037500
v -0.333333 0.500000 0.045833
v 0.333333 0.500000 0.045833
v 0.333333 0.500000 -0.037500
v -0.333333 0.416667 -0.037500
v -0.333333 0.416667 -0.005244
v -0.333333 0.467744 0.045833
v -0.333333 0.500000 0.045833
v -0.333333 0.500000 -0.037500
v -0.333333 0.500000 -0.037500
v 0.333333 0.500000 -0.037500
v 0.333333 0.416667 -0.037500
v -0.333333 0.416667 -0.037500
v 0.333333 0.500000 -0.037500
v 0.333333 0.500000 0.045833
v 0.333333 0.467744 0.045833
v 0.333333 0.416667 -0.005244
v 0.333333 0.416667 -0.037500
v 0.333333 0.467744 0.045833
v -0.333333 0.467744 0.045833
v -0.333333 0.416667 -0.005244
v 0.333333 0.416667 -0.005244
v 0.333333 0.416667 -0.037500
v 0.333333 0.416667 -0.005244
v -0.333333 0.416667 -0.005244
v -0.333333 0.416667 -0.037500
v -0.333333 -0.500000 -0.020833
v -0.333333 -0.333333 -0.020833
v -0.333333 -0.333333 -0.029167
v -0.333333 -0.500000 -0.029167
v -0.333333 -0.500000 -0.029167
v -0.333333 -0.333333 -0.029167
v 0.333333 -0.333333 -0.029167
v 0.333333 -0.500000 -0.029167
v 0.333333 -0.500000 -0.029167
v 0.333333 -0.333333 -0.029167
v 0.333333 -0.333333 -0.020833
v 0.333333 -0.500000 -0.020833
v 0.333333 -0.500000 -0.020833
v 0.333333 -0.333333 -0.020833
v -0.333333 -0.333333 -0.020833
v -0.333333 -0.500000 -0.020833
v -0.333333 -0.500000 -0.029167
v 0.333333 -0.500000 -0.029167
v 0.333333 -0.500000 -0.020833
v -0.333333 -0.500000 -0.020833
v 0.333333 -0.333333 -0.029167
v -0.333333 -0.333333 -0.029167
v -0.333333 -0.333333 -0.020833
v 0.333333 -0.333333 -0.020833

vn -1.000000 0.000000 0.000000
vn -1.000000 0.000000 0.000000
vn -1.000000 0.000000 0.000000
vn -1.000000 0.000000 0.000000
vn -1.000000 0.000000 0.000000
vn -1.000000 0.000000 0.000000
vn -1.000000 0.000000 0.000000
vn -1.000000 0.000000 0.000000
vn 0.000000 0.000000 -1.000000
vn 0.000000 0.000000 -1.000000
vn 0.000000 0.000000 -1.000000
vn 0.000000 0.000000 -1.000000
vn 1.000000 0.000000 0.000000
vn 1.000000 0.000000 0.000000
vn 1.000000 0.000000 0.000000
vn 1.000000 0.000000 0.000000
vn 1.000000 0.000000 0.000000
vn 1.000000 0.000000 0.000000
vn 1.000000 0.000000 0.000000
vn 1.000000 0.000000 0.000000
vn 0.000000 0.000000 1.000000
vn 0.000000 0.000000 1.000000
vn 0.000000 0.000000 1.000000
vn 0.000000 0.000000 1.000000
vn 0.000000 0.000000 1.000000
vn 0.000000 0.000000 1.000000
vn 0.000000 0.000000 1.000000
vn 0.000000 0.000000 1.000000
vn 0.000000 0.000000 1.000000
vn 0.000000 0.000000 1.000000
vn 0.000000 0.000000 1.000000
vn 0.000000 0.000000 1.000000
vn 0.000000 0.000000 1.000000
vn 0.000000 0.000000 1.000000
vn 0.000000 0.000000 1.000000
vn 0.000000 0.000000 1.000000
vn 0.000000 0.000000 1.000000
vn 0.000000 0.000000 1.000000
vn 0.000000 0.000000 1.000000
vn 0.000000 0.000000 1.000000
vn 0.000000 -1.000000 0.000000
vn 0.000000 -1.000000 0.000000
vn 0.000000 -1.000000 0.000000
vn 0.000000 -1.000000 0.000000
vn 0.000000 1.000000 0.000000
vn 0.000000 1.000000 0.000000
vn 0.000000 1.000000 0.000000
vn 0.000000 1.000000 0.000000
vn 0.000000 0.000000 1.000000
vn 0.000000 0.000000 1.000000
vn 0.000000 0.000000 1.000000
vn 0.000000 0.000000 1.000000
vn 0.000000 0.000000 1.000000
vn 0.000000 0.000000 1.000000
vn 0.000000 0.000000 1.000000
vn 0.000000 0.000000 1.000000
vn 0.000000 0.000000 1.000000
vn 0.000000 0.000000 1.000000
vn 0.000000 0.000000 1.000000
vn 0.000000 0.000000 1.000000
vn 0.000000 0.000000 1.000000
vn 0.000000 0.000000 1.000000
vn 0.000000 1.000000 0.000000
vn 0.000000 1.000000 0.000000
vn 0.000000 1.000000 0.000000
vn 0.000000 1.000000 0.000000
vn 0.000000 1.000000 0.000000
vn 0.000000 1.000000 0.000000
vn 0.000000 1.000000 0.000000
vn 0.000000 1.000000 0.000000
vn 0.000000 -1.000000 0.000000
vn 0.000000 -1.000000 0.000000
vn 0.000000 -1.000000 0.000000
vn 0.000000 -1.000000 0.000000
vn 0.000000 -1.000000 0.000000
vn 0.000000 -1.000000 0.000000
vn 0.000000 -1.000000 0.000000
vn 0.000000 -1.000000 0.000000
vn -0.707107 -0.707107 0.000000
vn -0.707107 -0.707107 0.000000
vn -0.707107 -0.707107 0.000000
vn -0.707107 -0.707107 0.000000
vn -1.000000 0.000000 0.000000
vn -1.000000 0.000000 0.000000
vn -1.000000 0.000000 0.000000
vn -1.000000 0.000000 0.000000
vn -1.000000 0.000000 0.000000
vn -1.000000 0.000000 0.000000
vn -1.000000 0.000000 0.000000
vn -1.000000 0.000000 0.000000
vn -0.707107 0.707107 0.000000
vn -0.707107 0.707107 0.000000
vn -0.707107 0.707107 0.000000
vn -0.707107 0.707107 0.000000
vn 0.000000 1.000000 0.000000
vn 0.000000 1.000000 0.000000
vn 0.000000 1.000000 0.000000
vn 0.000000 1.000000 0.000000
vn 0.707107 0.707107 0.000000
vn 0.707107 0.707107 0.000000
vn 0.707107 0.707107 0.000000
vn 0.707107 0.707107 0.000000
vn 1.000000 0.000000 0.000000
vn 1.000000 0.000000 0.000000
vn 1.000000 0.000000 0.000000
vn 1.000000 0.000000 0.000000
vn 1.000000 0.000000 0.000000
vn 1.000000 0.000000 0.000000
vn 1.000000 0.000000 0.000000
vn 1.000000 0.000000 0.000000
vn 0.707107 -0.707107 0.000000
vn 0.707107 -0.707107 0.000000
vn 0.707107 -0.707107 0.000000
vn 0.707107 -0.707107 0.000000
vn 0.000000 -1.000000 0.000000
vn 0.000000 -1.000000 0.000000
vn 0.000000 -1.000000 0.000000
vn 0.000000 -1.000000 0.000000
vn 0.000000 0.000000 1.000000
vn 0.000000 0.000000 1.000000
vn 0.000000 0.000000 1.000000
vn 0.000000 0.000000 1.000000
vn 0.000000 0.000000 1.000000
vn 0.000000 0.000000 1.000000
vn 0.000000 0.000000 1.000000
vn 0.000000 0.000000 1.000000
vn 0.000000 0.000000 1.000000
vn 0.000000 0.000000 1.000000
vn 0.000000 0.000000 1.000000
vn 0.000000 0.000000 1.000000
vn 0.000000 0.000000 1.000000
vn 0.000000 0.000000 1.000000
vn 0.000000 0.000000 1.000000
vn 0.000000 0.000000 1.000000
vn 0.000000 0.000000 1.000000
vn 0.000000 0.000000 1.000000
vn 0.000000 0.000000 1.000000
vn 0.000000 0.000000 1.000000
vn 0.000000 0.000000 1.000000
vn 0.000000 0.000000 1.000000
vn 0.000000 1.000000 0.000000
vn 0.000000 1.000000 0.000000
vn 0.000000 1.000000 0.000000
vn 0.000000 1.000000 0.000000
vn -1.000000 0.000000 0.000000
vn -1.000000 0.000000 0.000000
vn -1.000000 0.000000 0.000000
vn -1.000000 0.000000 0.000000
vn -1.000000 0.000000 0.000000
vn 0.000000 0.000000 -1.000000
vn 0.000000 0.000000 -1.000000
vn 0.000000 0.000000 -1.000000
vn 0.000000 0.000000 -1.000000
vn 1.000000 0.000000 0.000000
vn 1.000000 0.000000 0.000000
vn 1.000000 0.000000 0.000000
vn 1.000000 0.000000 0.000000
vn 1.000000 0.000000 0.000000
vn 0.000000 -0.707107 0.707107
vn 0.000000 -0.707107 0.707107
vn 0.000000 -0.707107 0.707107
vn 0.000000 -0.707107 0.707107
vn 0.000000 -1.000000 0.000000
vn 0.000000 -1.000000 0.000000
vn 0.000000 -1.000000 0.000000
vn 0.000000 -1.000000 0.000000
vn -1.000000 0.000000 0.000000
vn -1.000000 0.000000 0.000000
vn -1.000000 0.000000 0.000000
vn -1.000000 0.000000 0.000000
vn 0.000000 0.000000 -1.000000
vn 0.000000 0.000000 -1.000000
vn 0.000000 0.000000 -1.000000
vn 0.000000 0.000000 -1.000000
vn 1.000000 0.000000 0.000000
vn 1.000000 0.000000 0.000000
vn 1.000000 0.000000 0.000000
vn 1.000000 0.000000 0.000000
vn 0.000000 0.000000 1.000000
vn 0.000000 0.000000 1.000000
vn 0.000000 0.000000 1.000000
vn 0.000000 0.000000 1.000000
vn 0.000000 -1.000000 0.000000
vn 0.000000 -1.000000 0.000000
vn 0.000000 -1.000000 0.000000
vn 0.000000 -1.000000 0.000000
vn 0.000000 1.000000 0.000000
vn 0.000000 1.000000 0.000000
vn 0.000000 1.000000 0.000000
vn 0.000000 1.000000 0.000000


usemtl Ground
f 2//2 8//8 1//1
f 6//6 4//4 5//5
f 2//2 7//7 8//8
f 6//6 3//3 4//4
f 3//3 7//7 2//2
f 7//7 3//3 6//6
f 10//10 12//12 9//9
f 12//12 10//10 11//11
f 20//20 13//13 14//14
f 16//16 17//17 18//18
f 20//20 14//14 15//15
f 16//16 18//18 19//19
f 19//19 20//20 15//15
f 15//15 16//16 19//19
f 21//21 22//22 23//23
f 23//23 24//24 25//25
f 25//25 26//26 27//27
f 30//30 21//21 23//23
f 25//25 27//27 28//28
f 30//30 23//23 25//25
f 25//25 28//28 29//29
f 29//29 30//30 25//25
f 31//31 32//32 33//33
f 33//33 34//34 35//35
f 35//35 36//36 37//37
f 40//40 31//31 33//33
f 35//35 37//37 38//38
f 40//40 33//33 35//35
f 35//35 38//38 39//39
f 39//39 40//40 35//35
f 43//43 44//44 41//41
f 41//41 42//42 43//43
f 46//46 48//48 45//45
f 48//48 46//46 47//47
f 51//51 52//52 49//49
f 49//49 50//50 51//51
f 55//55 56//56 53//53
f 53//53 54//54 55//55
f 58//58 55//55 54//54
f 54//54 57//57 58//58
f 61//61 62//62 59//59
f 59//59 60//60 61//61
f 60//60 51//51 50//50
f 50//50 61//61 60//60
f 57//57 59//59 62//62
f 62//62 58//58 57//57
f 64//64 66//66 63//63
f 66//66 64//64 65//65
f 68//68 70//70 67//67
f 70//70 68//68 69//69
f 73//73 74//74 71//71
f 71//71 72//72 73//73
f 77//77 78//78 75//75
f 75//75 76//76 77//77
f 81//81 82//82 79//79
f 79//79 80//80 81//81
f 84//84 86//86 83//83
f 86//86 84//84 85//85
f 88//88 90//90 87//87
f 90//90 88//88 89//89
f 92//92 94//94 91//91
f 94//94 92//92 93//93
f 96//96 98//98 95//95
f 98//98 96//96 97//97
f 100//100 102//102 99//99
f 102//102 100//100 101//101
f 105//105 106//106 103//103
f 103//103 104//104 105//105
f 109//109 110//110 107//107
f 107//107 108//108 109//109
f 113//113 114//114 111//111
f 111//111 112//112 113//113
f 117//117 118//118 115//115
f 115//115 116//116 117//117
f 126//126 127//127 119//119
f 119//119 120//120 121//121
f 121//121 122//122 123//123
f 123//123 124//124 125//125
f 126//126 119//119 121//121
f 121//121 123//123 125//125
f 125//125 126//126 121//121
f 135//135 136//136 128//128
f 128//128 129//129 130//130
f 130//130 131//131 132//132
f 132//132 133//133 134//134
f 135//135 128//128 130//130
f 130//130 132//132 134//134
f 134//134 135//135 130//130
f 139//139 140//140 137//137
f 137//137 138//138 139//139
f 142//142 144//144 141//141
f 144//144 142//142 143//143
f 146//146 149//149 145//145
f 149//149 147//147 148//148
f 147//147 149//149 146//146
f 151//151 153//153 150//150
f 153//153 151//151 152//152
f 157//157 158//158 154//154
f 154//154 155//155 156//156
f 156//156 157//157 154//154
f 161//161 162//162 159//159
f 159//159 160//160 161//161
f 165//165 166//166 163//163
f 163//163 164//164 165//165

usemtl Ground2
f 168//168 170//170 167//167
f 170//170 168//168 169//169
f 172//172 174//174 171//171
f 174//174 172//172 173//173
f 177//177 178//178 175//175
f 175//175 176//176 177//177
f 181//181 182//182 179//179
f 179//179 180//180 181//181
f 185//185 186//186 183//183
f 183//183 184//184 185//185
f 188//188 190//190 187//187
f 190//190 188//188 189//189
